<svg width="60" height="60" viewBox="0 0 60 60" fill="none" xmlns="http://www.w3.org/2000/svg">
<circle cx="30" cy="30" r="30" fill="#1A1A1A"/>
<mask id="mask0" mask-type="alpha" maskUnits="userSpaceOnUse" x="0" y="0" width="60" height="60">
<circle cx="30" cy="30" r="30" fill="#00A82D"/>
</mask>
<g mask="url(#mask0)">
<g opacity="0.3">
<path fill-rule="evenodd" clip-rule="evenodd" d="M5.39123 0.975364C5.39123 1.47653 4.98336 1.88334 4.4801 1.88334C3.97721 1.88334 3.56934 1.47653 3.56934 0.975364C3.56934 0.473846 3.97721 0.0673828 4.4801 0.0673828C4.98336 0.0673828 5.39123 0.473846 5.39123 0.975364Z" fill="white"/>
<path fill-rule="evenodd" clip-rule="evenodd" d="M1.97423 4.42947C1.97423 4.93098 1.56636 5.33745 1.06311 5.33745C0.560213 5.33745 0.152344 4.93098 0.152344 4.42947C0.152344 3.9283 0.560213 3.52148 1.06311 3.52148C1.56636 3.52148 1.97423 3.9283 1.97423 4.42947Z" fill="white"/>
<path fill-rule="evenodd" clip-rule="evenodd" d="M12.3141 0.975364C12.3141 1.47653 11.9062 1.88334 11.403 1.88334C10.9001 1.88334 10.4922 1.47653 10.4922 0.975364C10.4922 0.473846 10.9001 0.0673828 11.403 0.0673828C11.9062 0.0673828 12.3141 0.473846 12.3141 0.975364Z" fill="white"/>
<path fill-rule="evenodd" clip-rule="evenodd" d="M8.89647 4.42947C8.89647 4.93098 8.4886 5.33745 7.98534 5.33745C7.48209 5.33745 7.07422 4.93098 7.07422 4.42947C7.07422 3.9283 7.48209 3.52148 7.98534 3.52148C8.4886 3.52148 8.89647 3.9283 8.89647 4.42947Z" fill="white"/>
<path fill-rule="evenodd" clip-rule="evenodd" d="M19.2392 0.975364C19.2392 1.47653 18.8314 1.88334 18.3281 1.88334C17.8249 1.88334 17.417 1.47653 17.417 0.975364C17.417 0.473846 17.8249 0.0673828 18.3281 0.0673828C18.8314 0.0673828 19.2392 0.473846 19.2392 0.975364Z" fill="white"/>
<path fill-rule="evenodd" clip-rule="evenodd" d="M15.8213 4.42947C15.8213 4.93098 15.4134 5.33745 14.9101 5.33745C14.4069 5.33745 13.999 4.93098 13.999 4.42947C13.999 3.9283 14.4069 3.52148 14.9101 3.52148C15.4134 3.52148 15.8213 3.9283 15.8213 4.42947Z" fill="white"/>
<path fill-rule="evenodd" clip-rule="evenodd" d="M5.39123 7.87966C5.39123 8.38082 4.98336 8.78764 4.4801 8.78764C3.97721 8.78764 3.56934 8.38082 3.56934 7.87966C3.56934 7.37814 3.97721 6.97168 4.4801 6.97168C4.98336 6.97168 5.39123 7.37814 5.39123 7.87966Z" fill="white"/>
<path fill-rule="evenodd" clip-rule="evenodd" d="M1.97423 11.3338C1.97423 11.8353 1.56636 12.2417 1.06311 12.2417C0.560213 12.2417 0.152344 11.8353 0.152344 11.3338C0.152344 10.8326 0.560213 10.4258 1.06311 10.4258C1.56636 10.4258 1.97423 10.8326 1.97423 11.3338Z" fill="white"/>
<path fill-rule="evenodd" clip-rule="evenodd" d="M12.3141 7.87966C12.3141 8.38082 11.9062 8.78764 11.403 8.78764C10.9001 8.78764 10.4922 8.38082 10.4922 7.87966C10.4922 7.37814 10.9001 6.97168 11.403 6.97168C11.9062 6.97168 12.3141 7.37814 12.3141 7.87966Z" fill="white"/>
<path fill-rule="evenodd" clip-rule="evenodd" d="M8.89647 11.3338C8.89647 11.8353 8.4886 12.2417 7.98534 12.2417C7.48209 12.2417 7.07422 11.8353 7.07422 11.3338C7.07422 10.8326 7.48209 10.4258 7.98534 10.4258C8.4886 10.4258 8.89647 10.8326 8.89647 11.3338Z" fill="white"/>
<path fill-rule="evenodd" clip-rule="evenodd" d="M19.2392 7.87966C19.2392 8.38082 18.8314 8.78764 18.3281 8.78764C17.8249 8.78764 17.417 8.38082 17.417 7.87966C17.417 7.37814 17.8249 6.97168 18.3281 6.97168C18.8314 6.97168 19.2392 7.37814 19.2392 7.87966Z" fill="white"/>
<path fill-rule="evenodd" clip-rule="evenodd" d="M15.8213 11.3338C15.8213 11.8353 15.4134 12.2417 14.9101 12.2417C14.4069 12.2417 13.999 11.8353 13.999 11.3338C13.999 10.8326 14.4069 10.4258 14.9101 10.4258C15.4134 10.4258 15.8213 10.8326 15.8213 11.3338Z" fill="white"/>
<path fill-rule="evenodd" clip-rule="evenodd" d="M5.38865 14.781C5.38865 15.2825 4.98078 15.689 4.47753 15.689C3.97428 15.689 3.56641 15.2825 3.56641 14.781C3.56641 14.2795 3.97428 13.873 4.47753 13.873C4.98078 13.873 5.38865 14.2795 5.38865 14.781Z" fill="white"/>
<path fill-rule="evenodd" clip-rule="evenodd" d="M1.9697 18.2351C1.9697 18.7366 1.56183 19.1431 1.05858 19.1431C0.55533 19.1431 0.147461 18.7366 0.147461 18.2351C0.147461 17.734 0.55533 17.3271 1.05858 17.3271C1.56183 17.3271 1.9697 17.734 1.9697 18.2351Z" fill="white"/>
<path fill-rule="evenodd" clip-rule="evenodd" d="M12.3105 14.781C12.3105 15.2825 11.9026 15.689 11.3994 15.689C10.8961 15.689 10.4883 15.2825 10.4883 14.781C10.4883 14.2795 10.8961 13.873 11.3994 13.873C11.9026 13.873 12.3105 14.2795 12.3105 14.781Z" fill="white"/>
<path fill-rule="evenodd" clip-rule="evenodd" d="M8.8922 18.2351C8.8922 18.7366 8.48433 19.1431 7.98108 19.1431C7.47818 19.1431 7.07031 18.7366 7.07031 18.2351C7.07031 17.734 7.47818 17.3271 7.98108 17.3271C8.48433 17.3271 8.8922 17.734 8.8922 18.2351Z" fill="white"/>
<path fill-rule="evenodd" clip-rule="evenodd" d="M19.236 14.781C19.236 15.2825 18.8281 15.689 18.3248 15.689C17.8219 15.689 17.4141 15.2825 17.4141 14.781C17.4141 14.2795 17.8219 13.873 18.3248 13.873C18.8281 13.873 19.236 14.2795 19.236 14.781Z" fill="white"/>
<path fill-rule="evenodd" clip-rule="evenodd" d="M15.819 18.2351C15.819 18.7366 15.4111 19.1431 14.9078 19.1431C14.4049 19.1431 13.9971 18.7366 13.9971 18.2351C13.9971 17.734 14.4049 17.3271 14.9078 17.3271C15.4111 17.3271 15.819 17.734 15.819 18.2351Z" fill="white"/>
<path fill-rule="evenodd" clip-rule="evenodd" d="M26.2184 0.975364C26.2184 1.47653 25.8105 1.88334 25.3072 1.88334C24.8044 1.88334 24.3965 1.47653 24.3965 0.975364C24.3965 0.473846 24.8044 0.0673828 25.3072 0.0673828C25.8105 0.0673828 26.2184 0.473846 26.2184 0.975364Z" fill="white"/>
<path fill-rule="evenodd" clip-rule="evenodd" d="M22.8004 4.42947C22.8004 4.93098 22.3925 5.33745 21.8893 5.33745C21.3864 5.33745 20.9785 4.93098 20.9785 4.42947C20.9785 3.9283 21.3864 3.52148 21.8893 3.52148C22.3925 3.52148 22.8004 3.9283 22.8004 4.42947Z" fill="white"/>
<path fill-rule="evenodd" clip-rule="evenodd" d="M33.1422 0.975364C33.1422 1.47653 32.7343 1.88334 32.2311 1.88334C31.7282 1.88334 31.3203 1.47653 31.3203 0.975364C31.3203 0.473846 31.7282 0.0673828 32.2311 0.0673828C32.7343 0.0673828 33.1422 0.473846 33.1422 0.975364Z" fill="white"/>
<path fill-rule="evenodd" clip-rule="evenodd" d="M29.7226 4.42947C29.7226 4.93098 29.3148 5.33745 28.8115 5.33745C28.3083 5.33745 27.9004 4.93098 27.9004 4.42947C27.9004 3.9283 28.3083 3.52148 28.8115 3.52148C29.3148 3.52148 29.7226 3.9283 29.7226 4.42947Z" fill="white"/>
<path fill-rule="evenodd" clip-rule="evenodd" d="M40.066 0.975364C40.066 1.47653 39.6582 1.88334 39.1549 1.88334C38.6517 1.88334 38.2441 1.47653 38.2441 0.975364C38.2441 0.473846 38.6517 0.0673828 39.1549 0.0673828C39.6582 0.0673828 40.066 0.473846 40.066 0.975364Z" fill="white"/>
<path fill-rule="evenodd" clip-rule="evenodd" d="M36.6504 4.42947C36.6504 4.93098 36.2425 5.33745 35.7392 5.33745C35.236 5.33745 34.8281 4.93098 34.8281 4.42947C34.8281 3.9283 35.236 3.52148 35.7392 3.52148C36.2425 3.52148 36.6504 3.9283 36.6504 4.42947Z" fill="white"/>
<path fill-rule="evenodd" clip-rule="evenodd" d="M26.2184 7.87966C26.2184 8.38082 25.8105 8.78764 25.3072 8.78764C24.8044 8.78764 24.3965 8.38082 24.3965 7.87966C24.3965 7.37814 24.8044 6.97168 25.3072 6.97168C25.8105 6.97168 26.2184 7.37814 26.2184 7.87966Z" fill="white"/>
<path fill-rule="evenodd" clip-rule="evenodd" d="M22.8004 11.3338C22.8004 11.8353 22.3925 12.2417 21.8893 12.2417C21.3864 12.2417 20.9785 11.8353 20.9785 11.3338C20.9785 10.8326 21.3864 10.4258 21.8893 10.4258C22.3925 10.4258 22.8004 10.8326 22.8004 11.3338Z" fill="white"/>
<path fill-rule="evenodd" clip-rule="evenodd" d="M33.1422 7.87966C33.1422 8.38082 32.7343 8.78764 32.2311 8.78764C31.7282 8.78764 31.3203 8.38082 31.3203 7.87966C31.3203 7.37814 31.7282 6.97168 32.2311 6.97168C32.7343 6.97168 33.1422 7.37814 33.1422 7.87966Z" fill="white"/>
<path fill-rule="evenodd" clip-rule="evenodd" d="M29.7226 11.3338C29.7226 11.8353 29.3148 12.2417 28.8115 12.2417C28.3083 12.2417 27.9004 11.8353 27.9004 11.3338C27.9004 10.8326 28.3083 10.4258 28.8115 10.4258C29.3148 10.4258 29.7226 10.8326 29.7226 11.3338Z" fill="white"/>
<path fill-rule="evenodd" clip-rule="evenodd" d="M40.066 7.87966C40.066 8.38082 39.6582 8.78764 39.1549 8.78764C38.6517 8.78764 38.2441 8.38082 38.2441 7.87966C38.2441 7.37814 38.6517 6.97168 39.1549 6.97168C39.6582 6.97168 40.066 7.37814 40.066 7.87966Z" fill="white"/>
<path fill-rule="evenodd" clip-rule="evenodd" d="M36.6504 11.3338C36.6504 11.8353 36.2425 12.2417 35.7392 12.2417C35.236 12.2417 34.8281 11.8353 34.8281 11.3338C34.8281 10.8326 35.236 10.4258 35.7392 10.4258C36.2425 10.4258 36.6504 10.8326 36.6504 11.3338Z" fill="white"/>
<path fill-rule="evenodd" clip-rule="evenodd" d="M26.2148 14.781C26.2148 15.2825 25.807 15.689 25.3037 15.689C24.8004 15.689 24.3926 15.2825 24.3926 14.781C24.3926 14.2795 24.8004 13.873 25.3037 13.873C25.807 13.873 26.2148 14.2795 26.2148 14.781Z" fill="white"/>
<path fill-rule="evenodd" clip-rule="evenodd" d="M22.7988 18.2351C22.7988 18.7366 22.3909 19.1431 21.8877 19.1431C21.3844 19.1431 20.9766 18.7366 20.9766 18.2351C20.9766 17.734 21.3844 17.3271 21.8877 17.3271C22.3909 17.3271 22.7988 17.734 22.7988 18.2351Z" fill="white"/>
<path fill-rule="evenodd" clip-rule="evenodd" d="M33.1396 14.781C33.1396 15.2825 32.7318 15.689 32.2285 15.689C31.7253 15.689 31.3174 15.2825 31.3174 14.781C31.3174 14.2795 31.7253 13.873 32.2285 13.873C32.7318 13.873 33.1396 14.2795 33.1396 14.781Z" fill="white"/>
<path fill-rule="evenodd" clip-rule="evenodd" d="M29.7213 18.2351C29.7213 18.7366 29.3134 19.1431 28.8102 19.1431C28.3073 19.1431 27.8994 18.7366 27.8994 18.2351C27.8994 17.734 28.3073 17.3271 28.8102 17.3271C29.3134 17.3271 29.7213 17.734 29.7213 18.2351Z" fill="white"/>
<path fill-rule="evenodd" clip-rule="evenodd" d="M40.0654 14.781C40.0654 15.2825 39.6575 15.689 39.1543 15.689C38.651 15.689 38.2432 15.2825 38.2432 14.781C38.2432 14.2795 38.651 13.873 39.1543 13.873C39.6575 13.873 40.0654 14.2795 40.0654 14.781Z" fill="white"/>
<path fill-rule="evenodd" clip-rule="evenodd" d="M36.6474 18.2351C36.6474 18.7366 36.2396 19.1431 35.736 19.1431C35.2331 19.1431 34.8252 18.7366 34.8252 18.2351C34.8252 17.734 35.2331 17.3271 35.736 17.3271C36.2396 17.3271 36.6474 17.734 36.6474 18.2351Z" fill="white"/>
<path fill-rule="evenodd" clip-rule="evenodd" d="M47.0475 0.975364C47.0475 1.47653 46.6396 1.88334 46.1364 1.88334C45.6331 1.88334 45.2256 1.47653 45.2256 0.975364C45.2256 0.473846 45.6331 0.0673828 46.1364 0.0673828C46.6396 0.0673828 47.0475 0.473846 47.0475 0.975364Z" fill="white"/>
<path fill-rule="evenodd" clip-rule="evenodd" d="M43.6285 4.42947C43.6285 4.93098 43.2207 5.33745 42.7174 5.33745C42.2142 5.33745 41.8066 4.93098 41.8066 4.42947C41.8066 3.9283 42.2142 3.52148 42.7174 3.52148C43.2207 3.52148 43.6285 3.9283 43.6285 4.42947Z" fill="white"/>
<path fill-rule="evenodd" clip-rule="evenodd" d="M53.9694 0.975364C53.9694 1.47653 53.5615 1.88334 53.0582 1.88334C52.555 1.88334 52.1475 1.47653 52.1475 0.975364C52.1475 0.473846 52.555 0.0673828 53.0582 0.0673828C53.5615 0.0673828 53.9694 0.473846 53.9694 0.975364Z" fill="white"/>
<path fill-rule="evenodd" clip-rule="evenodd" d="M50.5533 4.42947C50.5533 4.93098 50.1455 5.33745 49.6422 5.33745C49.139 5.33745 48.7314 4.93098 48.7314 4.42947C48.7314 3.9283 49.139 3.52148 49.6422 3.52148C50.1455 3.52148 50.5533 3.9283 50.5533 4.42947Z" fill="white"/>
<path fill-rule="evenodd" clip-rule="evenodd" d="M60.8941 0.975364C60.8941 1.47653 60.4863 1.88334 59.983 1.88334C59.4801 1.88334 59.0723 1.47653 59.0723 0.975364C59.0723 0.473846 59.4801 0.0673828 59.983 0.0673828C60.4863 0.0673828 60.8941 0.473846 60.8941 0.975364Z" fill="white"/>
<path fill-rule="evenodd" clip-rule="evenodd" d="M57.4772 4.42947C57.4772 4.93098 57.0693 5.33745 56.566 5.33745C56.0631 5.33745 55.6553 4.93098 55.6553 4.42947C55.6553 3.9283 56.0631 3.52148 56.566 3.52148C57.0693 3.52148 57.4772 3.9283 57.4772 4.42947Z" fill="white"/>
<path fill-rule="evenodd" clip-rule="evenodd" d="M47.0475 7.87966C47.0475 8.38082 46.6396 8.78764 46.1364 8.78764C45.6331 8.78764 45.2256 8.38082 45.2256 7.87966C45.2256 7.37814 45.6331 6.97168 46.1364 6.97168C46.6396 6.97168 47.0475 7.37814 47.0475 7.87966Z" fill="white"/>
<path fill-rule="evenodd" clip-rule="evenodd" d="M43.6285 11.3338C43.6285 11.8353 43.2207 12.2417 42.7174 12.2417C42.2142 12.2417 41.8066 11.8353 41.8066 11.3338C41.8066 10.8326 42.2142 10.4258 42.7174 10.4258C43.2207 10.4258 43.6285 10.8326 43.6285 11.3338Z" fill="white"/>
<path fill-rule="evenodd" clip-rule="evenodd" d="M53.9694 7.87966C53.9694 8.38082 53.5615 8.78764 53.0582 8.78764C52.555 8.78764 52.1475 8.38082 52.1475 7.87966C52.1475 7.37814 52.555 6.97168 53.0582 6.97168C53.5615 6.97168 53.9694 7.37814 53.9694 7.87966Z" fill="white"/>
<path fill-rule="evenodd" clip-rule="evenodd" d="M50.5533 11.3338C50.5533 11.8353 50.1455 12.2417 49.6422 12.2417C49.139 12.2417 48.7314 11.8353 48.7314 11.3338C48.7314 10.8326 49.139 10.4258 49.6422 10.4258C50.1455 10.4258 50.5533 10.8326 50.5533 11.3338Z" fill="white"/>
<path fill-rule="evenodd" clip-rule="evenodd" d="M60.8941 7.87966C60.8941 8.38082 60.4863 8.78764 59.983 8.78764C59.4801 8.78764 59.0723 8.38082 59.0723 7.87966C59.0723 7.37814 59.4801 6.97168 59.983 6.97168C60.4863 6.97168 60.8941 7.37814 60.8941 7.87966Z" fill="white"/>
<path fill-rule="evenodd" clip-rule="evenodd" d="M57.4772 11.3338C57.4772 11.8353 57.0693 12.2417 56.566 12.2417C56.0631 12.2417 55.6553 11.8353 55.6553 11.3338C55.6553 10.8326 56.0631 10.4258 56.566 10.4258C57.0693 10.4258 57.4772 10.8326 57.4772 11.3338Z" fill="white"/>
<path fill-rule="evenodd" clip-rule="evenodd" d="M47.0455 14.781C47.0455 15.2825 46.6377 15.689 46.1344 15.689C45.6311 15.689 45.2236 15.2825 45.2236 14.781C45.2236 14.2795 45.6311 13.873 46.1344 13.873C46.6377 13.873 47.0455 14.2795 47.0455 14.781Z" fill="white"/>
<path fill-rule="evenodd" clip-rule="evenodd" d="M43.6266 18.2351C43.6266 18.7366 43.2187 19.1431 42.7155 19.1431C42.2122 19.1431 41.8047 18.7366 41.8047 18.2351C41.8047 17.734 42.2122 17.3271 42.7155 17.3271C43.2187 17.3271 43.6266 17.734 43.6266 18.2351Z" fill="white"/>
<path fill-rule="evenodd" clip-rule="evenodd" d="M53.9664 14.781C53.9664 15.2825 53.5586 15.689 53.0553 15.689C52.552 15.689 52.1445 15.2825 52.1445 14.781C52.1445 14.2795 52.552 13.873 53.0553 13.873C53.5586 13.873 53.9664 14.2795 53.9664 14.781Z" fill="white"/>
<path fill-rule="evenodd" clip-rule="evenodd" d="M50.5498 18.2351C50.5498 18.7366 50.1419 19.1431 49.6387 19.1431C49.1354 19.1431 48.7275 18.7366 48.7275 18.2351C48.7275 17.734 49.1354 17.3271 49.6387 17.3271C50.1419 17.3271 50.5498 17.734 50.5498 18.2351Z" fill="white"/>
<path fill-rule="evenodd" clip-rule="evenodd" d="M60.8922 14.781C60.8922 15.2825 60.4843 15.689 59.9811 15.689C59.4778 15.689 59.0703 15.2825 59.0703 14.781C59.0703 14.2795 59.4778 13.873 59.9811 13.873C60.4843 13.873 60.8922 14.2795 60.8922 14.781Z" fill="white"/>
<path fill-rule="evenodd" clip-rule="evenodd" d="M57.4742 18.2351C57.4742 18.7366 57.0664 19.1431 56.5631 19.1431C56.0599 19.1431 55.6523 18.7366 55.6523 18.2351C55.6523 17.734 56.0599 17.3271 56.5631 17.3271C57.0664 17.3271 57.4742 17.734 57.4742 18.2351Z" fill="white"/>
<path fill-rule="evenodd" clip-rule="evenodd" d="M5.39123 21.8035C5.39123 22.305 4.98336 22.7115 4.4801 22.7115C3.97721 22.7115 3.56934 22.305 3.56934 21.8035C3.56934 21.3023 3.97721 20.8955 4.4801 20.8955C4.98336 20.8955 5.39123 21.3023 5.39123 21.8035Z" fill="white"/>
<path fill-rule="evenodd" clip-rule="evenodd" d="M1.97423 25.2576C1.97423 25.7591 1.56636 26.1659 1.06311 26.1659C0.560213 26.1659 0.152344 25.7591 0.152344 25.2576C0.152344 24.7564 0.560213 24.3496 1.06311 24.3496C1.56636 24.3496 1.97423 24.7564 1.97423 25.2576Z" fill="white"/>
<path fill-rule="evenodd" clip-rule="evenodd" d="M12.3141 21.8035C12.3141 22.305 11.9062 22.7115 11.403 22.7115C10.9001 22.7115 10.4922 22.305 10.4922 21.8035C10.4922 21.3023 10.9001 20.8955 11.403 20.8955C11.9062 20.8955 12.3141 21.3023 12.3141 21.8035Z" fill="white"/>
<path fill-rule="evenodd" clip-rule="evenodd" d="M8.89647 25.2576C8.89647 25.7591 8.4886 26.1659 7.98534 26.1659C7.48209 26.1659 7.07422 25.7591 7.07422 25.2576C7.07422 24.7564 7.48209 24.3496 7.98534 24.3496C8.4886 24.3496 8.89647 24.7564 8.89647 25.2576Z" fill="white"/>
<path fill-rule="evenodd" clip-rule="evenodd" d="M19.2392 21.8035C19.2392 22.305 18.8314 22.7115 18.3281 22.7115C17.8249 22.7115 17.417 22.305 17.417 21.8035C17.417 21.3023 17.8249 20.8955 18.3281 20.8955C18.8314 20.8955 19.2392 21.3023 19.2392 21.8035Z" fill="white"/>
<path fill-rule="evenodd" clip-rule="evenodd" d="M15.8213 25.2576C15.8213 25.7591 15.4134 26.1659 14.9101 26.1659C14.4069 26.1659 13.999 25.7591 13.999 25.2576C13.999 24.7564 14.4069 24.3496 14.9101 24.3496C15.4134 24.3496 15.8213 24.7564 15.8213 25.2576Z" fill="white"/>
<path fill-rule="evenodd" clip-rule="evenodd" d="M5.39123 28.7078C5.39123 29.2093 4.98336 29.6158 4.4801 29.6158C3.97721 29.6158 3.56934 29.2093 3.56934 28.7078C3.56934 28.2066 3.97721 27.7998 4.4801 27.7998C4.98336 27.7998 5.39123 28.2066 5.39123 28.7078Z" fill="white"/>
<path fill-rule="evenodd" clip-rule="evenodd" d="M1.97423 32.1622C1.97423 32.6634 1.56636 33.0702 1.06311 33.0702C0.560213 33.0702 0.152344 32.6634 0.152344 32.1622C0.152344 31.6607 0.560213 31.2539 1.06311 31.2539C1.56636 31.2539 1.97423 31.6607 1.97423 32.1622Z" fill="white"/>
<path fill-rule="evenodd" clip-rule="evenodd" d="M12.3141 28.7078C12.3141 29.2093 11.9062 29.6158 11.403 29.6158C10.9001 29.6158 10.4922 29.2093 10.4922 28.7078C10.4922 28.2066 10.9001 27.7998 11.403 27.7998C11.9062 27.7998 12.3141 28.2066 12.3141 28.7078Z" fill="white"/>
<path fill-rule="evenodd" clip-rule="evenodd" d="M8.89647 32.1622C8.89647 32.6634 8.4886 33.0702 7.98534 33.0702C7.48209 33.0702 7.07422 32.6634 7.07422 32.1622C7.07422 31.6607 7.48209 31.2539 7.98534 31.2539C8.4886 31.2539 8.89647 31.6607 8.89647 32.1622Z" fill="white"/>
<path fill-rule="evenodd" clip-rule="evenodd" d="M19.2392 28.7078C19.2392 29.2093 18.8314 29.6158 18.3281 29.6158C17.8249 29.6158 17.417 29.2093 17.417 28.7078C17.417 28.2066 17.8249 27.7998 18.3281 27.7998C18.8314 27.7998 19.2392 28.2066 19.2392 28.7078Z" fill="white"/>
<path fill-rule="evenodd" clip-rule="evenodd" d="M15.8213 32.1622C15.8213 32.6634 15.4134 33.0702 14.9101 33.0702C14.4069 33.0702 13.999 32.6634 13.999 32.1622C13.999 31.6607 14.4069 31.2539 14.9101 31.2539C15.4134 31.2539 15.8213 31.6607 15.8213 32.1622Z" fill="white"/>
<path fill-rule="evenodd" clip-rule="evenodd" d="M5.38865 35.6092C5.38865 36.1107 4.98078 36.5171 4.47753 36.5171C3.97428 36.5171 3.56641 36.1107 3.56641 35.6092C3.56641 35.108 3.97428 34.7012 4.47753 34.7012C4.98078 34.7012 5.38865 35.108 5.38865 35.6092Z" fill="white"/>
<path fill-rule="evenodd" clip-rule="evenodd" d="M1.9697 39.0636C1.9697 39.5648 1.56183 39.9716 1.05858 39.9716C0.55533 39.9716 0.147461 39.5648 0.147461 39.0636C0.147461 38.5621 0.55533 38.1553 1.05858 38.1553C1.56183 38.1553 1.9697 38.5621 1.9697 39.0636Z" fill="white"/>
<path fill-rule="evenodd" clip-rule="evenodd" d="M12.3105 35.6092C12.3105 36.1107 11.9026 36.5171 11.3994 36.5171C10.8961 36.5171 10.4883 36.1107 10.4883 35.6092C10.4883 35.108 10.8961 34.7012 11.3994 34.7012C11.9026 34.7012 12.3105 35.108 12.3105 35.6092Z" fill="white"/>
<path fill-rule="evenodd" clip-rule="evenodd" d="M8.8922 39.0636C8.8922 39.5648 8.48433 39.9716 7.98108 39.9716C7.47818 39.9716 7.07031 39.5648 7.07031 39.0636C7.07031 38.5621 7.47818 38.1553 7.98108 38.1553C8.48433 38.1553 8.8922 38.5621 8.8922 39.0636Z" fill="white"/>
<path fill-rule="evenodd" clip-rule="evenodd" d="M19.236 35.6092C19.236 36.1107 18.8281 36.5171 18.3248 36.5171C17.8219 36.5171 17.4141 36.1107 17.4141 35.6092C17.4141 35.108 17.8219 34.7012 18.3248 34.7012C18.8281 34.7012 19.236 35.108 19.236 35.6092Z" fill="white"/>
<path fill-rule="evenodd" clip-rule="evenodd" d="M15.819 39.0636C15.819 39.5648 15.4111 39.9716 14.9078 39.9716C14.4049 39.9716 13.9971 39.5648 13.9971 39.0636C13.9971 38.5621 14.4049 38.1553 14.9078 38.1553C15.4111 38.1553 15.819 38.5621 15.819 39.0636Z" fill="white"/>
<path fill-rule="evenodd" clip-rule="evenodd" d="M26.2184 21.8035C26.2184 22.305 25.8105 22.7115 25.3072 22.7115C24.8044 22.7115 24.3965 22.305 24.3965 21.8035C24.3965 21.3023 24.8044 20.8955 25.3072 20.8955C25.8105 20.8955 26.2184 21.3023 26.2184 21.8035Z" fill="white"/>
<path fill-rule="evenodd" clip-rule="evenodd" d="M22.8004 25.2576C22.8004 25.7591 22.3925 26.1659 21.8893 26.1659C21.3864 26.1659 20.9785 25.7591 20.9785 25.2576C20.9785 24.7564 21.3864 24.3496 21.8893 24.3496C22.3925 24.3496 22.8004 24.7564 22.8004 25.2576Z" fill="white"/>
<path fill-rule="evenodd" clip-rule="evenodd" d="M33.1422 21.8035C33.1422 22.305 32.7343 22.7115 32.2311 22.7115C31.7282 22.7115 31.3203 22.305 31.3203 21.8035C31.3203 21.3023 31.7282 20.8955 32.2311 20.8955C32.7343 20.8955 33.1422 21.3023 33.1422 21.8035Z" fill="white"/>
<path fill-rule="evenodd" clip-rule="evenodd" d="M29.7226 25.2576C29.7226 25.7591 29.3148 26.1659 28.8115 26.1659C28.3083 26.1659 27.9004 25.7591 27.9004 25.2576C27.9004 24.7564 28.3083 24.3496 28.8115 24.3496C29.3148 24.3496 29.7226 24.7564 29.7226 25.2576Z" fill="white"/>
<path fill-rule="evenodd" clip-rule="evenodd" d="M40.066 21.8035C40.066 22.305 39.6582 22.7115 39.1549 22.7115C38.6517 22.7115 38.2441 22.305 38.2441 21.8035C38.2441 21.3023 38.6517 20.8955 39.1549 20.8955C39.6582 20.8955 40.066 21.3023 40.066 21.8035Z" fill="white"/>
<path fill-rule="evenodd" clip-rule="evenodd" d="M36.6504 25.2576C36.6504 25.7591 36.2425 26.1659 35.7392 26.1659C35.236 26.1659 34.8281 25.7591 34.8281 25.2576C34.8281 24.7564 35.236 24.3496 35.7392 24.3496C36.2425 24.3496 36.6504 24.7564 36.6504 25.2576Z" fill="white"/>
<path fill-rule="evenodd" clip-rule="evenodd" d="M26.2184 28.7078C26.2184 29.2093 25.8105 29.6158 25.3072 29.6158C24.8044 29.6158 24.3965 29.2093 24.3965 28.7078C24.3965 28.2066 24.8044 27.7998 25.3072 27.7998C25.8105 27.7998 26.2184 28.2066 26.2184 28.7078Z" fill="white"/>
<path fill-rule="evenodd" clip-rule="evenodd" d="M22.8004 32.1622C22.8004 32.6634 22.3925 33.0702 21.8893 33.0702C21.3864 33.0702 20.9785 32.6634 20.9785 32.1622C20.9785 31.6607 21.3864 31.2539 21.8893 31.2539C22.3925 31.2539 22.8004 31.6607 22.8004 32.1622Z" fill="white"/>
<path fill-rule="evenodd" clip-rule="evenodd" d="M33.1422 28.7078C33.1422 29.2093 32.7343 29.6158 32.2311 29.6158C31.7282 29.6158 31.3203 29.2093 31.3203 28.7078C31.3203 28.2066 31.7282 27.7998 32.2311 27.7998C32.7343 27.7998 33.1422 28.2066 33.1422 28.7078Z" fill="white"/>
<path fill-rule="evenodd" clip-rule="evenodd" d="M29.7226 32.1622C29.7226 32.6634 29.3148 33.0702 28.8115 33.0702C28.3083 33.0702 27.9004 32.6634 27.9004 32.1622C27.9004 31.6607 28.3083 31.2539 28.8115 31.2539C29.3148 31.2539 29.7226 31.6607 29.7226 32.1622Z" fill="white"/>
<path fill-rule="evenodd" clip-rule="evenodd" d="M40.066 28.7078C40.066 29.2093 39.6582 29.6158 39.1549 29.6158C38.6517 29.6158 38.2441 29.2093 38.2441 28.7078C38.2441 28.2066 38.6517 27.7998 39.1549 27.7998C39.6582 27.7998 40.066 28.2066 40.066 28.7078Z" fill="white"/>
<path fill-rule="evenodd" clip-rule="evenodd" d="M36.6504 32.1622C36.6504 32.6634 36.2425 33.0702 35.7392 33.0702C35.236 33.0702 34.8281 32.6634 34.8281 32.1622C34.8281 31.6607 35.236 31.2539 35.7392 31.2539C36.2425 31.2539 36.6504 31.6607 36.6504 32.1622Z" fill="white"/>
<path fill-rule="evenodd" clip-rule="evenodd" d="M26.2148 35.6092C26.2148 36.1107 25.807 36.5171 25.3037 36.5171C24.8004 36.5171 24.3926 36.1107 24.3926 35.6092C24.3926 35.108 24.8004 34.7012 25.3037 34.7012C25.807 34.7012 26.2148 35.108 26.2148 35.6092Z" fill="white"/>
<path fill-rule="evenodd" clip-rule="evenodd" d="M22.7988 39.0636C22.7988 39.5648 22.3909 39.9716 21.8877 39.9716C21.3844 39.9716 20.9766 39.5648 20.9766 39.0636C20.9766 38.5621 21.3844 38.1553 21.8877 38.1553C22.3909 38.1553 22.7988 38.5621 22.7988 39.0636Z" fill="white"/>
<path fill-rule="evenodd" clip-rule="evenodd" d="M33.1396 35.6092C33.1396 36.1107 32.7318 36.5171 32.2285 36.5171C31.7253 36.5171 31.3174 36.1107 31.3174 35.6092C31.3174 35.108 31.7253 34.7012 32.2285 34.7012C32.7318 34.7012 33.1396 35.108 33.1396 35.6092Z" fill="white"/>
<path fill-rule="evenodd" clip-rule="evenodd" d="M29.7213 39.0636C29.7213 39.5648 29.3134 39.9716 28.8102 39.9716C28.3073 39.9716 27.8994 39.5648 27.8994 39.0636C27.8994 38.5621 28.3073 38.1553 28.8102 38.1553C29.3134 38.1553 29.7213 38.5621 29.7213 39.0636Z" fill="white"/>
<path fill-rule="evenodd" clip-rule="evenodd" d="M40.0654 35.6092C40.0654 36.1107 39.6575 36.5171 39.1543 36.5171C38.651 36.5171 38.2432 36.1107 38.2432 35.6092C38.2432 35.108 38.651 34.7012 39.1543 34.7012C39.6575 34.7012 40.0654 35.108 40.0654 35.6092Z" fill="white"/>
<path fill-rule="evenodd" clip-rule="evenodd" d="M36.6474 39.0636C36.6474 39.5648 36.2396 39.9716 35.736 39.9716C35.2331 39.9716 34.8252 39.5648 34.8252 39.0636C34.8252 38.5621 35.2331 38.1553 35.736 38.1553C36.2396 38.1553 36.6474 38.5621 36.6474 39.0636Z" fill="white"/>
<path fill-rule="evenodd" clip-rule="evenodd" d="M47.0475 21.8035C47.0475 22.305 46.6396 22.7115 46.1364 22.7115C45.6331 22.7115 45.2256 22.305 45.2256 21.8035C45.2256 21.3023 45.6331 20.8955 46.1364 20.8955C46.6396 20.8955 47.0475 21.3023 47.0475 21.8035Z" fill="white"/>
<path fill-rule="evenodd" clip-rule="evenodd" d="M43.6285 25.2576C43.6285 25.7591 43.2207 26.1659 42.7174 26.1659C42.2142 26.1659 41.8066 25.7591 41.8066 25.2576C41.8066 24.7564 42.2142 24.3496 42.7174 24.3496C43.2207 24.3496 43.6285 24.7564 43.6285 25.2576Z" fill="white"/>
<path fill-rule="evenodd" clip-rule="evenodd" d="M53.9694 21.8035C53.9694 22.305 53.5615 22.7115 53.0582 22.7115C52.555 22.7115 52.1475 22.305 52.1475 21.8035C52.1475 21.3023 52.555 20.8955 53.0582 20.8955C53.5615 20.8955 53.9694 21.3023 53.9694 21.8035Z" fill="white"/>
<path fill-rule="evenodd" clip-rule="evenodd" d="M50.5533 25.2576C50.5533 25.7591 50.1455 26.1659 49.6422 26.1659C49.139 26.1659 48.7314 25.7591 48.7314 25.2576C48.7314 24.7564 49.139 24.3496 49.6422 24.3496C50.1455 24.3496 50.5533 24.7564 50.5533 25.2576Z" fill="white"/>
<path fill-rule="evenodd" clip-rule="evenodd" d="M60.8941 21.8035C60.8941 22.305 60.4863 22.7115 59.983 22.7115C59.4801 22.7115 59.0723 22.305 59.0723 21.8035C59.0723 21.3023 59.4801 20.8955 59.983 20.8955C60.4863 20.8955 60.8941 21.3023 60.8941 21.8035Z" fill="white"/>
<path fill-rule="evenodd" clip-rule="evenodd" d="M57.4772 25.2576C57.4772 25.7591 57.0693 26.1659 56.566 26.1659C56.0631 26.1659 55.6553 25.7591 55.6553 25.2576C55.6553 24.7564 56.0631 24.3496 56.566 24.3496C57.0693 24.3496 57.4772 24.7564 57.4772 25.2576Z" fill="white"/>
<path fill-rule="evenodd" clip-rule="evenodd" d="M47.0475 28.7078C47.0475 29.2093 46.6396 29.6158 46.1364 29.6158C45.6331 29.6158 45.2256 29.2093 45.2256 28.7078C45.2256 28.2066 45.6331 27.7998 46.1364 27.7998C46.6396 27.7998 47.0475 28.2066 47.0475 28.7078Z" fill="white"/>
<path fill-rule="evenodd" clip-rule="evenodd" d="M43.6285 32.1622C43.6285 32.6634 43.2207 33.0702 42.7174 33.0702C42.2142 33.0702 41.8066 32.6634 41.8066 32.1622C41.8066 31.6607 42.2142 31.2539 42.7174 31.2539C43.2207 31.2539 43.6285 31.6607 43.6285 32.1622Z" fill="white"/>
<path fill-rule="evenodd" clip-rule="evenodd" d="M53.9694 28.7078C53.9694 29.2093 53.5615 29.6158 53.0582 29.6158C52.555 29.6158 52.1475 29.2093 52.1475 28.7078C52.1475 28.2066 52.555 27.7998 53.0582 27.7998C53.5615 27.7998 53.9694 28.2066 53.9694 28.7078Z" fill="white"/>
<path fill-rule="evenodd" clip-rule="evenodd" d="M50.5533 32.1622C50.5533 32.6634 50.1455 33.0702 49.6422 33.0702C49.139 33.0702 48.7314 32.6634 48.7314 32.1622C48.7314 31.6607 49.139 31.2539 49.6422 31.2539C50.1455 31.2539 50.5533 31.6607 50.5533 32.1622Z" fill="white"/>
<path fill-rule="evenodd" clip-rule="evenodd" d="M60.8941 28.7078C60.8941 29.2093 60.4863 29.6158 59.983 29.6158C59.4801 29.6158 59.0723 29.2093 59.0723 28.7078C59.0723 28.2066 59.4801 27.7998 59.983 27.7998C60.4863 27.7998 60.8941 28.2066 60.8941 28.7078Z" fill="white"/>
<path fill-rule="evenodd" clip-rule="evenodd" d="M57.4772 32.1622C57.4772 32.6634 57.0693 33.0702 56.566 33.0702C56.0631 33.0702 55.6553 32.6634 55.6553 32.1622C55.6553 31.6607 56.0631 31.2539 56.566 31.2539C57.0693 31.2539 57.4772 31.6607 57.4772 32.1622Z" fill="white"/>
<path fill-rule="evenodd" clip-rule="evenodd" d="M47.0455 35.6092C47.0455 36.1107 46.6377 36.5171 46.1344 36.5171C45.6311 36.5171 45.2236 36.1107 45.2236 35.6092C45.2236 35.108 45.6311 34.7012 46.1344 34.7012C46.6377 34.7012 47.0455 35.108 47.0455 35.6092Z" fill="white"/>
<path fill-rule="evenodd" clip-rule="evenodd" d="M43.6266 39.0636C43.6266 39.5648 43.2187 39.9716 42.7155 39.9716C42.2122 39.9716 41.8047 39.5648 41.8047 39.0636C41.8047 38.5621 42.2122 38.1553 42.7155 38.1553C43.2187 38.1553 43.6266 38.5621 43.6266 39.0636Z" fill="white"/>
<path fill-rule="evenodd" clip-rule="evenodd" d="M53.9664 35.6092C53.9664 36.1107 53.5586 36.5171 53.0553 36.5171C52.552 36.5171 52.1445 36.1107 52.1445 35.6092C52.1445 35.108 52.552 34.7012 53.0553 34.7012C53.5586 34.7012 53.9664 35.108 53.9664 35.6092Z" fill="white"/>
<path fill-rule="evenodd" clip-rule="evenodd" d="M50.5498 39.0636C50.5498 39.5648 50.1419 39.9716 49.6387 39.9716C49.1354 39.9716 48.7275 39.5648 48.7275 39.0636C48.7275 38.5621 49.1354 38.1553 49.6387 38.1553C50.1419 38.1553 50.5498 38.5621 50.5498 39.0636Z" fill="white"/>
<path fill-rule="evenodd" clip-rule="evenodd" d="M60.8922 35.6092C60.8922 36.1107 60.4843 36.5171 59.9811 36.5171C59.4778 36.5171 59.0703 36.1107 59.0703 35.6092C59.0703 35.108 59.4778 34.7012 59.9811 34.7012C60.4843 34.7012 60.8922 35.108 60.8922 35.6092Z" fill="white"/>
<path fill-rule="evenodd" clip-rule="evenodd" d="M57.4742 39.0636C57.4742 39.5648 57.0664 39.9716 56.5631 39.9716C56.0599 39.9716 55.6523 39.5648 55.6523 39.0636C55.6523 38.5621 56.0599 38.1553 56.5631 38.1553C57.0664 38.1553 57.4742 38.5621 57.4742 39.0636Z" fill="white"/>
<path fill-rule="evenodd" clip-rule="evenodd" d="M5.39123 42.632C5.39123 43.1331 4.98336 43.5399 4.4801 43.5399C3.97721 43.5399 3.56934 43.1331 3.56934 42.632C3.56934 42.1304 3.97721 41.7236 4.4801 41.7236C4.98336 41.7236 5.39123 42.1304 5.39123 42.632Z" fill="white"/>
<path fill-rule="evenodd" clip-rule="evenodd" d="M1.97423 46.0857C1.97423 46.5869 1.56636 46.9937 1.06311 46.9937C0.560213 46.9937 0.152344 46.5869 0.152344 46.0857C0.152344 45.5842 0.560213 45.1777 1.06311 45.1777C1.56636 45.1777 1.97423 45.5842 1.97423 46.0857Z" fill="white"/>
<path fill-rule="evenodd" clip-rule="evenodd" d="M12.3141 42.632C12.3141 43.1331 11.9062 43.5399 11.403 43.5399C10.9001 43.5399 10.4922 43.1331 10.4922 42.632C10.4922 42.1304 10.9001 41.7236 11.403 41.7236C11.9062 41.7236 12.3141 42.1304 12.3141 42.632Z" fill="white"/>
<path fill-rule="evenodd" clip-rule="evenodd" d="M8.89647 46.0857C8.89647 46.5869 8.4886 46.9937 7.98534 46.9937C7.48209 46.9937 7.07422 46.5869 7.07422 46.0857C7.07422 45.5842 7.48209 45.1777 7.98534 45.1777C8.4886 45.1777 8.89647 45.5842 8.89647 46.0857Z" fill="white"/>
<path fill-rule="evenodd" clip-rule="evenodd" d="M19.2392 42.632C19.2392 43.1331 18.8314 43.5399 18.3281 43.5399C17.8249 43.5399 17.417 43.1331 17.417 42.632C17.417 42.1304 17.8249 41.7236 18.3281 41.7236C18.8314 41.7236 19.2392 42.1304 19.2392 42.632Z" fill="white"/>
<path fill-rule="evenodd" clip-rule="evenodd" d="M15.8213 46.0857C15.8213 46.5869 15.4134 46.9937 14.9101 46.9937C14.4069 46.9937 13.999 46.5869 13.999 46.0857C13.999 45.5842 14.4069 45.1777 14.9101 45.1777C15.4134 45.1777 15.8213 45.5842 15.8213 46.0857Z" fill="white"/>
<path fill-rule="evenodd" clip-rule="evenodd" d="M5.39123 49.5363C5.39123 50.0374 4.98336 50.4443 4.4801 50.4443C3.97721 50.4443 3.56934 50.0374 3.56934 49.5363C3.56934 49.0348 3.97721 48.6279 4.4801 48.6279C4.98336 48.6279 5.39123 49.0348 5.39123 49.5363Z" fill="white"/>
<path fill-rule="evenodd" clip-rule="evenodd" d="M1.97423 52.99C1.97423 53.4912 1.56636 53.898 1.06311 53.898C0.560213 53.898 0.152344 53.4912 0.152344 52.99C0.152344 52.4885 0.560213 52.082 1.06311 52.082C1.56636 52.082 1.97423 52.4885 1.97423 52.99Z" fill="white"/>
<path fill-rule="evenodd" clip-rule="evenodd" d="M12.3141 49.5363C12.3141 50.0374 11.9062 50.4443 11.403 50.4443C10.9001 50.4443 10.4922 50.0374 10.4922 49.5363C10.4922 49.0348 10.9001 48.6279 11.403 48.6279C11.9062 48.6279 12.3141 49.0348 12.3141 49.5363Z" fill="white"/>
<path fill-rule="evenodd" clip-rule="evenodd" d="M8.89647 52.99C8.89647 53.4912 8.4886 53.898 7.98534 53.898C7.48209 53.898 7.07422 53.4912 7.07422 52.99C7.07422 52.4885 7.48209 52.082 7.98534 52.082C8.4886 52.082 8.89647 52.4885 8.89647 52.99Z" fill="white"/>
<path fill-rule="evenodd" clip-rule="evenodd" d="M19.2392 49.5363C19.2392 50.0374 18.8314 50.4443 18.3281 50.4443C17.8249 50.4443 17.417 50.0374 17.417 49.5363C17.417 49.0348 17.8249 48.6279 18.3281 48.6279C18.8314 48.6279 19.2392 49.0348 19.2392 49.5363Z" fill="white"/>
<path fill-rule="evenodd" clip-rule="evenodd" d="M15.8213 52.99C15.8213 53.4912 15.4134 53.898 14.9101 53.898C14.4069 53.898 13.999 53.4912 13.999 52.99C13.999 52.4885 14.4069 52.082 14.9101 52.082C15.4134 52.082 15.8213 52.4885 15.8213 52.99Z" fill="white"/>
<path fill-rule="evenodd" clip-rule="evenodd" d="M5.38865 56.4373C5.38865 56.9384 4.98078 57.3453 4.47753 57.3453C3.97428 57.3453 3.56641 56.9384 3.56641 56.4373C3.56641 55.9358 3.97428 55.5293 4.47753 55.5293C4.98078 55.5293 5.38865 55.9358 5.38865 56.4373Z" fill="white"/>
<path fill-rule="evenodd" clip-rule="evenodd" d="M1.9697 59.8914C1.9697 60.3929 1.56183 60.7994 1.05858 60.7994C0.55533 60.7994 0.147461 60.3929 0.147461 59.8914C0.147461 59.3899 0.55533 58.9834 1.05858 58.9834C1.56183 58.9834 1.9697 59.3899 1.9697 59.8914Z" fill="white"/>
<path fill-rule="evenodd" clip-rule="evenodd" d="M12.3105 56.4373C12.3105 56.9384 11.9026 57.3453 11.3994 57.3453C10.8961 57.3453 10.4883 56.9384 10.4883 56.4373C10.4883 55.9358 10.8961 55.5293 11.3994 55.5293C11.9026 55.5293 12.3105 55.9358 12.3105 56.4373Z" fill="white"/>
<path fill-rule="evenodd" clip-rule="evenodd" d="M8.8922 59.8914C8.8922 60.3929 8.48433 60.7994 7.98108 60.7994C7.47818 60.7994 7.07031 60.3929 7.07031 59.8914C7.07031 59.3899 7.47818 58.9834 7.98108 58.9834C8.48433 58.9834 8.8922 59.3899 8.8922 59.8914Z" fill="white"/>
<path fill-rule="evenodd" clip-rule="evenodd" d="M19.236 56.4373C19.236 56.9384 18.8281 57.3453 18.3248 57.3453C17.8219 57.3453 17.4141 56.9384 17.4141 56.4373C17.4141 55.9358 17.8219 55.5293 18.3248 55.5293C18.8281 55.5293 19.236 55.9358 19.236 56.4373Z" fill="white"/>
<path fill-rule="evenodd" clip-rule="evenodd" d="M15.819 59.8914C15.819 60.3929 15.4111 60.7994 14.9078 60.7994C14.4049 60.7994 13.9971 60.3929 13.9971 59.8914C13.9971 59.3899 14.4049 58.9834 14.9078 58.9834C15.4111 58.9834 15.819 59.3899 15.819 59.8914Z" fill="white"/>
<path fill-rule="evenodd" clip-rule="evenodd" d="M26.2184 42.632C26.2184 43.1331 25.8105 43.5399 25.3072 43.5399C24.8044 43.5399 24.3965 43.1331 24.3965 42.632C24.3965 42.1304 24.8044 41.7236 25.3072 41.7236C25.8105 41.7236 26.2184 42.1304 26.2184 42.632Z" fill="white"/>
<path fill-rule="evenodd" clip-rule="evenodd" d="M22.8004 46.0857C22.8004 46.5869 22.3925 46.9937 21.8893 46.9937C21.3864 46.9937 20.9785 46.5869 20.9785 46.0857C20.9785 45.5842 21.3864 45.1777 21.8893 45.1777C22.3925 45.1777 22.8004 45.5842 22.8004 46.0857Z" fill="white"/>
<path fill-rule="evenodd" clip-rule="evenodd" d="M33.1422 42.632C33.1422 43.1331 32.7343 43.5399 32.2311 43.5399C31.7282 43.5399 31.3203 43.1331 31.3203 42.632C31.3203 42.1304 31.7282 41.7236 32.2311 41.7236C32.7343 41.7236 33.1422 42.1304 33.1422 42.632Z" fill="white"/>
<path fill-rule="evenodd" clip-rule="evenodd" d="M29.7226 46.0857C29.7226 46.5869 29.3148 46.9937 28.8115 46.9937C28.3083 46.9937 27.9004 46.5869 27.9004 46.0857C27.9004 45.5842 28.3083 45.1777 28.8115 45.1777C29.3148 45.1777 29.7226 45.5842 29.7226 46.0857Z" fill="white"/>
<path fill-rule="evenodd" clip-rule="evenodd" d="M40.066 42.632C40.066 43.1331 39.6582 43.5399 39.1549 43.5399C38.6517 43.5399 38.2441 43.1331 38.2441 42.632C38.2441 42.1304 38.6517 41.7236 39.1549 41.7236C39.6582 41.7236 40.066 42.1304 40.066 42.632Z" fill="white"/>
<path fill-rule="evenodd" clip-rule="evenodd" d="M36.6504 46.0857C36.6504 46.5869 36.2425 46.9937 35.7392 46.9937C35.236 46.9937 34.8281 46.5869 34.8281 46.0857C34.8281 45.5842 35.236 45.1777 35.7392 45.1777C36.2425 45.1777 36.6504 45.5842 36.6504 46.0857Z" fill="white"/>
<path fill-rule="evenodd" clip-rule="evenodd" d="M26.2184 49.5363C26.2184 50.0374 25.8105 50.4443 25.3072 50.4443C24.8044 50.4443 24.3965 50.0374 24.3965 49.5363C24.3965 49.0348 24.8044 48.6279 25.3072 48.6279C25.8105 48.6279 26.2184 49.0348 26.2184 49.5363Z" fill="white"/>
<path fill-rule="evenodd" clip-rule="evenodd" d="M22.8004 52.99C22.8004 53.4912 22.3925 53.898 21.8893 53.898C21.3864 53.898 20.9785 53.4912 20.9785 52.99C20.9785 52.4885 21.3864 52.082 21.8893 52.082C22.3925 52.082 22.8004 52.4885 22.8004 52.99Z" fill="white"/>
<path fill-rule="evenodd" clip-rule="evenodd" d="M33.1422 49.5363C33.1422 50.0374 32.7343 50.4443 32.2311 50.4443C31.7282 50.4443 31.3203 50.0374 31.3203 49.5363C31.3203 49.0348 31.7282 48.6279 32.2311 48.6279C32.7343 48.6279 33.1422 49.0348 33.1422 49.5363Z" fill="white"/>
<path fill-rule="evenodd" clip-rule="evenodd" d="M29.7226 52.99C29.7226 53.4912 29.3148 53.898 28.8115 53.898C28.3083 53.898 27.9004 53.4912 27.9004 52.99C27.9004 52.4885 28.3083 52.082 28.8115 52.082C29.3148 52.082 29.7226 52.4885 29.7226 52.99Z" fill="white"/>
<path fill-rule="evenodd" clip-rule="evenodd" d="M40.066 49.5363C40.066 50.0374 39.6582 50.4443 39.1549 50.4443C38.6517 50.4443 38.2441 50.0374 38.2441 49.5363C38.2441 49.0348 38.6517 48.6279 39.1549 48.6279C39.6582 48.6279 40.066 49.0348 40.066 49.5363Z" fill="white"/>
<path fill-rule="evenodd" clip-rule="evenodd" d="M36.6504 52.99C36.6504 53.4912 36.2425 53.898 35.7392 53.898C35.236 53.898 34.8281 53.4912 34.8281 52.99C34.8281 52.4885 35.236 52.082 35.7392 52.082C36.2425 52.082 36.6504 52.4885 36.6504 52.99Z" fill="white"/>
<path fill-rule="evenodd" clip-rule="evenodd" d="M26.2148 56.4373C26.2148 56.9384 25.807 57.3453 25.3037 57.3453C24.8004 57.3453 24.3926 56.9384 24.3926 56.4373C24.3926 55.9358 24.8004 55.5293 25.3037 55.5293C25.807 55.5293 26.2148 55.9358 26.2148 56.4373Z" fill="white"/>
<path fill-rule="evenodd" clip-rule="evenodd" d="M22.7988 59.8914C22.7988 60.3929 22.3909 60.7994 21.8877 60.7994C21.3844 60.7994 20.9766 60.3929 20.9766 59.8914C20.9766 59.3899 21.3844 58.9834 21.8877 58.9834C22.3909 58.9834 22.7988 59.3899 22.7988 59.8914Z" fill="white"/>
<path fill-rule="evenodd" clip-rule="evenodd" d="M33.1396 56.4373C33.1396 56.9384 32.7318 57.3453 32.2285 57.3453C31.7253 57.3453 31.3174 56.9384 31.3174 56.4373C31.3174 55.9358 31.7253 55.5293 32.2285 55.5293C32.7318 55.5293 33.1396 55.9358 33.1396 56.4373Z" fill="white"/>
<path fill-rule="evenodd" clip-rule="evenodd" d="M29.7213 59.8914C29.7213 60.3929 29.3134 60.7994 28.8102 60.7994C28.3073 60.7994 27.8994 60.3929 27.8994 59.8914C27.8994 59.3899 28.3073 58.9834 28.8102 58.9834C29.3134 58.9834 29.7213 59.3899 29.7213 59.8914Z" fill="white"/>
<path fill-rule="evenodd" clip-rule="evenodd" d="M40.0654 56.4373C40.0654 56.9384 39.6575 57.3453 39.1543 57.3453C38.651 57.3453 38.2432 56.9384 38.2432 56.4373C38.2432 55.9358 38.651 55.5293 39.1543 55.5293C39.6575 55.5293 40.0654 55.9358 40.0654 56.4373Z" fill="white"/>
<path fill-rule="evenodd" clip-rule="evenodd" d="M36.6474 59.8914C36.6474 60.3929 36.2396 60.7994 35.736 60.7994C35.2331 60.7994 34.8252 60.3929 34.8252 59.8914C34.8252 59.3899 35.2331 58.9834 35.736 58.9834C36.2396 58.9834 36.6474 59.3899 36.6474 59.8914Z" fill="white"/>
<path fill-rule="evenodd" clip-rule="evenodd" d="M47.0475 42.632C47.0475 43.1331 46.6396 43.5399 46.1364 43.5399C45.6331 43.5399 45.2256 43.1331 45.2256 42.632C45.2256 42.1304 45.6331 41.7236 46.1364 41.7236C46.6396 41.7236 47.0475 42.1304 47.0475 42.632Z" fill="white"/>
<path fill-rule="evenodd" clip-rule="evenodd" d="M43.6285 46.0857C43.6285 46.5869 43.2207 46.9937 42.7174 46.9937C42.2142 46.9937 41.8066 46.5869 41.8066 46.0857C41.8066 45.5842 42.2142 45.1777 42.7174 45.1777C43.2207 45.1777 43.6285 45.5842 43.6285 46.0857Z" fill="white"/>
<path fill-rule="evenodd" clip-rule="evenodd" d="M53.9694 42.632C53.9694 43.1331 53.5615 43.5399 53.0582 43.5399C52.555 43.5399 52.1475 43.1331 52.1475 42.632C52.1475 42.1304 52.555 41.7236 53.0582 41.7236C53.5615 41.7236 53.9694 42.1304 53.9694 42.632Z" fill="white"/>
<path fill-rule="evenodd" clip-rule="evenodd" d="M50.5533 46.0857C50.5533 46.5869 50.1455 46.9937 49.6422 46.9937C49.139 46.9937 48.7314 46.5869 48.7314 46.0857C48.7314 45.5842 49.139 45.1777 49.6422 45.1777C50.1455 45.1777 50.5533 45.5842 50.5533 46.0857Z" fill="white"/>
<path fill-rule="evenodd" clip-rule="evenodd" d="M60.8941 42.632C60.8941 43.1331 60.4863 43.5399 59.983 43.5399C59.4801 43.5399 59.0723 43.1331 59.0723 42.632C59.0723 42.1304 59.4801 41.7236 59.983 41.7236C60.4863 41.7236 60.8941 42.1304 60.8941 42.632Z" fill="white"/>
<path fill-rule="evenodd" clip-rule="evenodd" d="M57.4772 46.0857C57.4772 46.5869 57.0693 46.9937 56.566 46.9937C56.0631 46.9937 55.6553 46.5869 55.6553 46.0857C55.6553 45.5842 56.0631 45.1777 56.566 45.1777C57.0693 45.1777 57.4772 45.5842 57.4772 46.0857Z" fill="white"/>
<path fill-rule="evenodd" clip-rule="evenodd" d="M47.0475 49.5363C47.0475 50.0374 46.6396 50.4443 46.1364 50.4443C45.6331 50.4443 45.2256 50.0374 45.2256 49.5363C45.2256 49.0348 45.6331 48.6279 46.1364 48.6279C46.6396 48.6279 47.0475 49.0348 47.0475 49.5363Z" fill="white"/>
<path fill-rule="evenodd" clip-rule="evenodd" d="M43.6285 52.99C43.6285 53.4912 43.2207 53.898 42.7174 53.898C42.2142 53.898 41.8066 53.4912 41.8066 52.99C41.8066 52.4885 42.2142 52.082 42.7174 52.082C43.2207 52.082 43.6285 52.4885 43.6285 52.99Z" fill="white"/>
<path fill-rule="evenodd" clip-rule="evenodd" d="M53.9694 49.5363C53.9694 50.0374 53.5615 50.4443 53.0582 50.4443C52.555 50.4443 52.1475 50.0374 52.1475 49.5363C52.1475 49.0348 52.555 48.6279 53.0582 48.6279C53.5615 48.6279 53.9694 49.0348 53.9694 49.5363Z" fill="white"/>
<path fill-rule="evenodd" clip-rule="evenodd" d="M50.5533 52.99C50.5533 53.4912 50.1455 53.898 49.6422 53.898C49.139 53.898 48.7314 53.4912 48.7314 52.99C48.7314 52.4885 49.139 52.082 49.6422 52.082C50.1455 52.082 50.5533 52.4885 50.5533 52.99Z" fill="white"/>
<path fill-rule="evenodd" clip-rule="evenodd" d="M60.8941 49.5363C60.8941 50.0374 60.4863 50.4443 59.983 50.4443C59.4801 50.4443 59.0723 50.0374 59.0723 49.5363C59.0723 49.0348 59.4801 48.6279 59.983 48.6279C60.4863 48.6279 60.8941 49.0348 60.8941 49.5363Z" fill="white"/>
<path fill-rule="evenodd" clip-rule="evenodd" d="M57.4772 52.99C57.4772 53.4912 57.0693 53.898 56.566 53.898C56.0631 53.898 55.6553 53.4912 55.6553 52.99C55.6553 52.4885 56.0631 52.082 56.566 52.082C57.0693 52.082 57.4772 52.4885 57.4772 52.99Z" fill="white"/>
<path fill-rule="evenodd" clip-rule="evenodd" d="M47.0455 56.4373C47.0455 56.9384 46.6377 57.3453 46.1344 57.3453C45.6311 57.3453 45.2236 56.9384 45.2236 56.4373C45.2236 55.9358 45.6311 55.5293 46.1344 55.5293C46.6377 55.5293 47.0455 55.9358 47.0455 56.4373Z" fill="white"/>
<path fill-rule="evenodd" clip-rule="evenodd" d="M43.6266 59.8914C43.6266 60.3929 43.2187 60.7994 42.7155 60.7994C42.2122 60.7994 41.8047 60.3929 41.8047 59.8914C41.8047 59.3899 42.2122 58.9834 42.7155 58.9834C43.2187 58.9834 43.6266 59.3899 43.6266 59.8914Z" fill="white"/>
<path fill-rule="evenodd" clip-rule="evenodd" d="M53.9664 56.4373C53.9664 56.9384 53.5586 57.3453 53.0553 57.3453C52.552 57.3453 52.1445 56.9384 52.1445 56.4373C52.1445 55.9358 52.552 55.5293 53.0553 55.5293C53.5586 55.5293 53.9664 55.9358 53.9664 56.4373Z" fill="white"/>
<path fill-rule="evenodd" clip-rule="evenodd" d="M50.5498 59.8914C50.5498 60.3929 50.1419 60.7994 49.6387 60.7994C49.1354 60.7994 48.7275 60.3929 48.7275 59.8914C48.7275 59.3899 49.1354 58.9834 49.6387 58.9834C50.1419 58.9834 50.5498 59.3899 50.5498 59.8914Z" fill="white"/>
<path fill-rule="evenodd" clip-rule="evenodd" d="M60.8922 56.4373C60.8922 56.9384 60.4843 57.3453 59.9811 57.3453C59.4778 57.3453 59.0703 56.9384 59.0703 56.4373C59.0703 55.9358 59.4778 55.5293 59.9811 55.5293C60.4843 55.5293 60.8922 55.9358 60.8922 56.4373Z" fill="white"/>
<path fill-rule="evenodd" clip-rule="evenodd" d="M57.4742 59.8914C57.4742 60.3929 57.0664 60.7994 56.5631 60.7994C56.0599 60.7994 55.6523 60.3929 55.6523 59.8914C55.6523 59.3899 56.0599 58.9834 56.5631 58.9834C57.0664 58.9834 57.4742 59.3899 57.4742 59.8914Z" fill="white"/>
</g>
</g>
<path fill-rule="evenodd" clip-rule="evenodd" d="M40.1261 24.5929C40.9739 23.9276 42.2005 24.0755 42.8658 24.9233C46.009 28.9285 48.1795 33.1539 49.0555 36.9727C49.918 40.7326 49.5993 44.5354 47.0676 47.0671C44.4798 49.6549 40.567 49.9315 36.7161 48.9942C32.7986 48.0407 28.4668 45.744 24.388 42.438C23.5508 41.7594 23.4223 40.5306 24.1008 39.6934C24.7794 38.8562 26.0082 38.7276 26.8454 39.4062C30.6007 42.45 34.4212 44.4191 37.6391 45.2023C40.9236 46.0018 43.1294 45.4861 44.308 44.3075C45.4608 43.1547 45.9804 41.022 45.2517 37.8454C44.5365 34.7278 42.6861 31.0157 39.7957 27.3326C39.1304 26.4849 39.2783 25.2582 40.1261 24.5929Z" fill="#CEDC00"/>
<path fill-rule="evenodd" clip-rule="evenodd" d="M24.5936 19.9743C23.9283 19.1265 24.0762 17.8999 24.924 17.2345C28.9292 14.0913 33.1546 11.9209 36.9735 11.0448C40.7333 10.1823 44.5361 10.5011 47.0678 13.0328C49.6556 15.6205 49.9323 19.5333 48.995 23.3842C48.0414 27.3018 45.7447 31.6336 42.4387 35.7123C41.7601 36.5495 40.5314 36.6781 39.6941 35.9995C38.8569 35.3209 38.7284 34.0921 39.4069 33.2549C42.4508 29.4996 44.4198 25.6791 45.203 22.4613C46.0025 19.1767 45.4869 16.971 44.3082 15.7923C43.1554 14.6395 41.0227 14.1199 37.8461 14.8487C34.7285 15.5638 31.0165 17.4142 27.3334 20.3046C26.4856 20.97 25.259 20.8221 24.5936 19.9743Z" fill="#00A82D"/>
<path fill-rule="evenodd" clip-rule="evenodd" d="M35.9991 20.4065C35.3205 21.2437 34.0917 21.3723 33.2545 20.6937C29.4992 17.6499 25.6787 15.6808 22.4608 14.8976C19.1763 14.0982 16.9706 14.6138 15.7919 15.7924C14.6133 16.971 14.0977 19.1768 14.8971 22.4613C15.6804 25.6792 17.6494 29.4997 20.6932 33.255C21.3718 34.0922 21.2432 35.321 20.406 35.9996C19.5688 36.6781 18.34 36.5496 17.6614 35.7124C14.3555 31.6336 12.0587 27.3018 11.1052 23.3843C10.1679 19.5334 10.4446 15.6206 13.0324 13.0328C15.6201 10.4451 19.5329 10.1684 23.3838 11.1057C27.3013 12.0592 31.6332 14.3559 35.7119 17.6619C36.5491 18.3405 36.6777 19.5693 35.9991 20.4065Z" fill="#CEDC00"/>
<path fill-rule="evenodd" clip-rule="evenodd" d="M20.4063 24.1013C21.2435 24.7798 21.3721 26.0086 20.6935 26.8458C17.6497 30.6011 15.6806 34.4216 14.8974 37.6395C14.0979 40.924 14.6135 43.1298 15.7922 44.3084C16.9708 45.487 19.1766 46.0027 22.4611 45.2032C25.6789 44.42 29.4994 42.4509 33.2547 39.4071C34.0919 38.7285 35.3207 38.8571 35.9993 39.6943C36.6779 40.5315 36.5493 41.7603 35.7121 42.4389C31.6334 45.7449 27.3016 48.0416 23.384 48.9951C19.5331 49.9324 15.6204 49.6558 13.0326 47.068C10.4448 44.4802 10.1681 40.5674 11.1054 36.7165C12.059 32.799 14.3557 28.4672 17.6617 24.3885C18.3403 23.5512 19.5691 23.4227 20.4063 24.1013Z" fill="#00A82D"/>
<path d="M49.0556 36.9737C49.9181 40.7335 49.5993 44.5363 47.0677 47.068C44.4799 49.6558 40.5671 49.9324 36.7162 48.9951C32.7987 48.0416 28.4668 45.7449 24.3881 42.4389C23.5509 41.7603 23.4223 40.5315 24.1009 39.6943C24.7795 38.8571 26.0083 38.7285 26.8455 39.4071C30.6008 42.4509 34.4213 44.42 37.6392 45.2032C40.9237 46.0027 43.1294 45.487 44.3081 44.3084C45.4609 43.1556 45.9805 41.0229 45.2518 37.8463C44.5366 34.7287 47.4127 34.7288 49.0556 36.9737Z" fill="#CEDC00"/>
</svg>
