<svg width="60" height="60" viewBox="0 0 60 60" fill="none" xmlns="http://www.w3.org/2000/svg">
<path fill-rule="evenodd" clip-rule="evenodd" d="M2.17773 35.6519H54.9016V2.94336H2.17773V35.6519Z" fill="#00A82D"/>
<mask id="mask0" mask-type="alpha" maskUnits="userSpaceOnUse" x="2" y="2" width="53" height="34">
<path fill-rule="evenodd" clip-rule="evenodd" d="M2.17773 35.6519H54.9016V2.94336H2.17773V35.6519Z" fill="white"/>
</mask>
<g mask="url(#mask0)">
<path fill-rule="evenodd" clip-rule="evenodd" d="M54.6836 11.06C54.5742 11.06 54.4636 11.0184 54.3804 10.9352L53.8037 10.3562C53.6361 10.1897 53.6361 9.91862 53.8037 9.74979C53.9702 9.58333 54.2424 9.58333 54.4101 9.74979L54.6836 10.0256L55.6538 9.05542C55.8214 8.88778 56.0925 8.88778 56.2602 9.05542C56.4278 9.22307 56.4278 9.49535 56.2602 9.6618L54.9868 10.9352C54.9035 11.0184 54.7941 11.06 54.6836 11.06Z" fill="#010202"/>
<path fill-rule="evenodd" clip-rule="evenodd" d="M54.6838 17.8296C54.5744 17.8296 54.4638 17.788 54.3806 17.7047L53.804 17.1257C53.6363 16.9592 53.6363 16.6882 53.804 16.5193C53.9704 16.3529 54.2427 16.3529 54.4103 16.5193L54.6838 16.7952L55.654 15.825C55.8217 15.6573 56.0928 15.6573 56.2604 15.825C56.428 15.9926 56.428 16.2649 56.2604 16.4313L54.987 17.7047C54.9038 17.788 54.7944 17.8296 54.6838 17.8296Z" fill="#010202"/>
<path fill-rule="evenodd" clip-rule="evenodd" d="M54.6838 24.6001C54.5744 24.6001 54.4638 24.5585 54.3806 24.4752L53.804 23.8962C53.6363 23.7298 53.6363 23.4587 53.804 23.2898C53.9704 23.1234 54.2427 23.1234 54.4103 23.2898L54.6838 23.5657L55.654 22.5955C55.8217 22.4278 56.0928 22.4278 56.2604 22.5955C56.428 22.7631 56.428 23.0354 56.2604 23.2018L54.987 24.4752C54.9038 24.5585 54.7944 24.6001 54.6838 24.6001Z" fill="#010202"/>
<path fill-rule="evenodd" clip-rule="evenodd" d="M54.6838 31.3696C54.5744 31.3696 54.4638 31.328 54.3806 31.2448L53.804 30.6657C53.6363 30.4993 53.6363 30.2282 53.804 30.0594C53.9704 29.8929 54.2427 29.8929 54.4103 30.0594L54.6838 30.3352L55.654 29.365C55.8217 29.1973 56.0928 29.1973 56.2604 29.365C56.428 29.5326 56.428 29.8049 56.2604 29.9714L54.987 31.2448C54.9038 31.328 54.7944 31.3696 54.6838 31.3696Z" fill="#010202"/>
<path fill-rule="evenodd" clip-rule="evenodd" d="M47.9133 7.67528C47.8039 7.67528 47.6933 7.63367 47.6101 7.55044L47.0334 6.9714C46.8658 6.80495 46.8658 6.53386 47.0334 6.36502C47.1999 6.19857 47.4722 6.19857 47.6398 6.36502L47.9133 6.64087L48.8835 5.67066C49.0512 5.50301 49.3222 5.50301 49.4899 5.67066C49.6575 5.8383 49.6575 6.11058 49.4899 6.27704L48.2165 7.55044C48.1333 7.63367 48.0239 7.67528 47.9133 7.67528Z" fill="#010202"/>
<path fill-rule="evenodd" clip-rule="evenodd" d="M47.9128 14.4448C47.8034 14.4448 47.6928 14.4032 47.6096 14.32L47.033 13.7409C46.8653 13.5745 46.8653 13.3034 47.033 13.1346C47.1994 12.9681 47.4717 12.9681 47.6393 13.1346L47.9128 13.4104L48.883 12.4402C49.0507 12.2725 49.3218 12.2725 49.4894 12.4402C49.657 12.6078 49.657 12.8801 49.4894 13.0466L48.216 14.32C48.1328 14.4032 48.0234 14.4448 47.9128 14.4448Z" fill="#010202"/>
<path fill-rule="evenodd" clip-rule="evenodd" d="M47.9128 21.2153C47.8034 21.2153 47.6928 21.1737 47.6096 21.0905L47.033 20.5114C46.8653 20.345 46.8653 20.0739 47.033 19.9051C47.1994 19.7386 47.4717 19.7386 47.6393 19.9051L47.9128 20.1809L48.883 19.2107C49.0507 19.043 49.3218 19.043 49.4894 19.2107C49.657 19.3783 49.657 19.6506 49.4894 19.8171L48.216 21.0905C48.1328 21.1737 48.0234 21.2153 47.9128 21.2153Z" fill="#010202"/>
<path fill-rule="evenodd" clip-rule="evenodd" d="M47.9128 27.9849C47.8034 27.9849 47.6928 27.9432 47.6096 27.86L47.033 27.281C46.8653 27.1145 46.8653 26.8434 47.033 26.6746C47.1994 26.5081 47.4717 26.5081 47.6393 26.6746L47.9128 26.9504L48.883 25.9802C49.0507 25.8126 49.3218 25.8126 49.4894 25.9802C49.657 26.1479 49.657 26.4202 49.4894 26.5866L48.216 27.86C48.1328 27.9432 48.0234 27.9849 47.9128 27.9849Z" fill="#010202"/>
<path fill-rule="evenodd" clip-rule="evenodd" d="M47.9128 34.7544C47.8034 34.7544 47.6928 34.7128 47.6096 34.6295L47.033 34.0505C46.8653 33.884 46.8653 33.613 47.033 33.4441C47.1994 33.2777 47.4717 33.2777 47.6393 33.4441L47.9128 33.72L48.883 32.7498C49.0507 32.5821 49.3218 32.5821 49.4894 32.7498C49.657 32.9174 49.657 33.1897 49.4894 33.3561L48.216 34.6295C48.1328 34.7128 48.0234 34.7544 47.9128 34.7544Z" fill="#010202"/>
<path fill-rule="evenodd" clip-rule="evenodd" d="M41.1443 11.06C41.0349 11.06 40.9243 11.0184 40.8411 10.9352L40.2644 10.3562C40.0968 10.1897 40.0968 9.91862 40.2644 9.74979C40.4309 9.58333 40.7031 9.58333 40.8708 9.74979L41.1443 10.0256L42.1145 9.05542C42.2821 8.88778 42.5532 8.88778 42.7208 9.05542C42.8885 9.22307 42.8885 9.49535 42.7208 9.6618L41.4474 10.9352C41.3642 11.0184 41.2548 11.06 41.1443 11.06Z" fill="#010202"/>
<path fill-rule="evenodd" clip-rule="evenodd" d="M41.1443 17.8296C41.0349 17.8296 40.9243 17.788 40.8411 17.7047L40.2644 17.1257C40.0968 16.9592 40.0968 16.6882 40.2644 16.5193C40.4309 16.3529 40.7031 16.3529 40.8708 16.5193L41.1443 16.7952L42.1145 15.825C42.2821 15.6573 42.5532 15.6573 42.7208 15.825C42.8885 15.9926 42.8885 16.2649 42.7208 16.4313L41.4474 17.7047C41.3642 17.788 41.2548 17.8296 41.1443 17.8296Z" fill="#010202"/>
<path fill-rule="evenodd" clip-rule="evenodd" d="M41.1443 24.6001C41.0349 24.6001 40.9243 24.5585 40.8411 24.4752L40.2644 23.8962C40.0968 23.7298 40.0968 23.4587 40.2644 23.2898C40.4309 23.1234 40.7031 23.1234 40.8708 23.2898L41.1443 23.5657L42.1145 22.5955C42.2821 22.4278 42.5532 22.4278 42.7208 22.5955C42.8885 22.7631 42.8885 23.0354 42.7208 23.2018L41.4474 24.4752C41.3642 24.5585 41.2548 24.6001 41.1443 24.6001Z" fill="#010202"/>
<path fill-rule="evenodd" clip-rule="evenodd" d="M41.1443 31.3696C41.0349 31.3696 40.9243 31.328 40.8411 31.2448L40.2644 30.6657C40.0968 30.4993 40.0968 30.2282 40.2644 30.0594C40.4309 29.8929 40.7031 29.8929 40.8708 30.0594L41.1443 30.3352L42.1145 29.365C42.2821 29.1973 42.5532 29.1973 42.7208 29.365C42.8885 29.5326 42.8885 29.8049 42.7208 29.9714L41.4474 31.2448C41.3642 31.328 41.2548 31.3696 41.1443 31.3696Z" fill="#010202"/>
<path fill-rule="evenodd" clip-rule="evenodd" d="M34.374 7.67528C34.2646 7.67528 34.154 7.63367 34.0708 7.55044L33.4941 6.9714C33.3265 6.80495 33.3265 6.53386 33.4941 6.36502C33.6606 6.19857 33.9329 6.19857 34.1005 6.36502L34.374 6.64087L35.3442 5.67066C35.5118 5.50301 35.7829 5.50301 35.9506 5.67066C36.1182 5.8383 36.1182 6.11058 35.9506 6.27704L34.6772 7.55044C34.594 7.63367 34.4846 7.67528 34.374 7.67528Z" fill="#010202"/>
<path fill-rule="evenodd" clip-rule="evenodd" d="M34.3737 14.4448C34.2644 14.4448 34.1538 14.4032 34.0706 14.32L33.4939 13.7409C33.3263 13.5745 33.3263 13.3034 33.4939 13.1346C33.6604 12.9681 33.9326 12.9681 34.1003 13.1346L34.3737 13.4104L35.344 12.4402C35.5116 12.2725 35.7827 12.2725 35.9503 12.4402C36.118 12.6078 36.118 12.8801 35.9503 13.0466L34.6769 14.32C34.5937 14.4032 34.4843 14.4448 34.3737 14.4448Z" fill="#010202"/>
<path fill-rule="evenodd" clip-rule="evenodd" d="M34.3737 21.2153C34.2644 21.2153 34.1538 21.1737 34.0706 21.0905L33.4939 20.5114C33.3263 20.345 33.3263 20.0739 33.4939 19.9051C33.6604 19.7386 33.9326 19.7386 34.1003 19.9051L34.3737 20.1809L35.344 19.2107C35.5116 19.043 35.7827 19.043 35.9503 19.2107C36.118 19.3783 36.118 19.6506 35.9503 19.8171L34.6769 21.0905C34.5937 21.1737 34.4843 21.2153 34.3737 21.2153Z" fill="#010202"/>
<path fill-rule="evenodd" clip-rule="evenodd" d="M34.3737 27.9849C34.2644 27.9849 34.1538 27.9432 34.0706 27.86L33.4939 27.281C33.3263 27.1145 33.3263 26.8434 33.4939 26.6746C33.6604 26.5081 33.9326 26.5081 34.1003 26.6746L34.3737 26.9504L35.344 25.9802C35.5116 25.8126 35.7827 25.8126 35.9503 25.9802C36.118 26.1479 36.118 26.4202 35.9503 26.5866L34.6769 27.86C34.5937 27.9432 34.4843 27.9849 34.3737 27.9849Z" fill="#010202"/>
<path fill-rule="evenodd" clip-rule="evenodd" d="M34.3737 34.7544C34.2644 34.7544 34.1538 34.7128 34.0706 34.6295L33.4939 34.0505C33.3263 33.884 33.3263 33.613 33.4939 33.4441C33.6604 33.2777 33.9326 33.2777 34.1003 33.4441L34.3737 33.72L35.344 32.7498C35.5116 32.5821 35.7827 32.5821 35.9503 32.7498C36.118 32.9174 36.118 33.1897 35.9503 33.3561L34.6769 34.6295C34.5937 34.7128 34.4843 34.7544 34.3737 34.7544Z" fill="#010202"/>
<path fill-rule="evenodd" clip-rule="evenodd" d="M27.603 11.06C27.4936 11.06 27.383 11.0184 27.2998 10.9352L26.7231 10.3562C26.5555 10.1897 26.5555 9.91862 26.7231 9.74979C26.8896 9.58333 27.1619 9.58333 27.3295 9.74979L27.603 10.0256L28.5732 9.05542C28.7409 8.88778 29.0119 8.88778 29.1796 9.05542C29.3472 9.22307 29.3472 9.49535 29.1796 9.6618L27.9062 10.9352C27.823 11.0184 27.7136 11.06 27.603 11.06Z" fill="#010202"/>
<path fill-rule="evenodd" clip-rule="evenodd" d="M27.6028 17.8296C27.4934 17.8296 27.3828 17.788 27.2996 17.7047L26.7229 17.1257C26.5553 16.9592 26.5553 16.6882 26.7229 16.5193C26.8894 16.3529 27.1616 16.3529 27.3293 16.5193L27.6028 16.7952L28.573 15.825C28.7406 15.6573 29.0117 15.6573 29.1793 15.825C29.347 15.9926 29.347 16.2649 29.1793 16.4313L27.9059 17.7047C27.8227 17.788 27.7133 17.8296 27.6028 17.8296Z" fill="#010202"/>
<path fill-rule="evenodd" clip-rule="evenodd" d="M27.6028 24.6001C27.4934 24.6001 27.3828 24.5585 27.2996 24.4752L26.7229 23.8962C26.5553 23.7298 26.5553 23.4587 26.7229 23.2898C26.8894 23.1234 27.1616 23.1234 27.3293 23.2898L27.6028 23.5657L28.573 22.5955C28.7406 22.4278 29.0117 22.4278 29.1793 22.5955C29.347 22.7631 29.347 23.0354 29.1793 23.2018L27.9059 24.4752C27.8227 24.5585 27.7133 24.6001 27.6028 24.6001Z" fill="#010202"/>
<path fill-rule="evenodd" clip-rule="evenodd" d="M27.6028 31.3696C27.4934 31.3696 27.3828 31.328 27.2996 31.2448L26.7229 30.6657C26.5553 30.4993 26.5553 30.2282 26.7229 30.0594C26.8894 29.8929 27.1616 29.8929 27.3293 30.0594L27.6028 30.3352L28.573 29.365C28.7406 29.1973 29.0117 29.1973 29.1793 29.365C29.347 29.5326 29.347 29.8049 29.1793 29.9714L27.9059 31.2448C27.8227 31.328 27.7133 31.3696 27.6028 31.3696Z" fill="#010202"/>
<path fill-rule="evenodd" clip-rule="evenodd" d="M20.8347 7.67528C20.7253 7.67528 20.6147 7.63367 20.5315 7.55044L19.9548 6.9714C19.7872 6.80495 19.7872 6.53386 19.9548 6.36502C20.1213 6.19857 20.3936 6.19857 20.5612 6.36502L20.8347 6.64087L21.8049 5.67066C21.9725 5.50301 22.2436 5.50301 22.4113 5.67066C22.5789 5.8383 22.5789 6.11058 22.4113 6.27704L21.1379 7.55044C21.0546 7.63367 20.9453 7.67528 20.8347 7.67528Z" fill="#010202"/>
<path fill-rule="evenodd" clip-rule="evenodd" d="M20.8342 14.4448C20.7248 14.4448 20.6142 14.4032 20.531 14.32L19.9543 13.7409C19.7867 13.5745 19.7867 13.3034 19.9543 13.1346C20.1208 12.9681 20.3931 12.9681 20.5607 13.1346L20.8342 13.4104L21.8044 12.4402C21.9721 12.2725 22.2431 12.2725 22.4108 12.4402C22.5784 12.6078 22.5784 12.8801 22.4108 13.0466L21.1374 14.32C21.0542 14.4032 20.9448 14.4448 20.8342 14.4448Z" fill="#010202"/>
<path fill-rule="evenodd" clip-rule="evenodd" d="M20.8342 21.2153C20.7248 21.2153 20.6142 21.1737 20.531 21.0905L19.9543 20.5114C19.7867 20.345 19.7867 20.0739 19.9543 19.9051C20.1208 19.7386 20.3931 19.7386 20.5607 19.9051L20.8342 20.1809L21.8044 19.2107C21.9721 19.043 22.2431 19.043 22.4108 19.2107C22.5784 19.3783 22.5784 19.6506 22.4108 19.8171L21.1374 21.0905C21.0542 21.1737 20.9448 21.2153 20.8342 21.2153Z" fill="#010202"/>
<path fill-rule="evenodd" clip-rule="evenodd" d="M20.8342 27.9849C20.7248 27.9849 20.6142 27.9432 20.531 27.86L19.9543 27.281C19.7867 27.1145 19.7867 26.8434 19.9543 26.6746C20.1208 26.5081 20.3931 26.5081 20.5607 26.6746L20.8342 26.9504L21.8044 25.9802C21.9721 25.8126 22.2431 25.8126 22.4108 25.9802C22.5784 26.1479 22.5784 26.4202 22.4108 26.5866L21.1374 27.86C21.0542 27.9432 20.9448 27.9849 20.8342 27.9849Z" fill="#010202"/>
<path fill-rule="evenodd" clip-rule="evenodd" d="M20.8342 34.7544C20.7248 34.7544 20.6142 34.7128 20.531 34.6295L19.9543 34.0505C19.7867 33.884 19.7867 33.613 19.9543 33.4441C20.1208 33.2777 20.3931 33.2777 20.5607 33.4441L20.8342 33.72L21.8044 32.7498C21.9721 32.5821 22.2431 32.5821 22.4108 32.7498C22.5784 32.9174 22.5784 33.1897 22.4108 33.3561L21.1374 34.6295C21.0542 34.7128 20.9448 34.7544 20.8342 34.7544Z" fill="#010202"/>
<path fill-rule="evenodd" clip-rule="evenodd" d="M14.0644 11.06C13.955 11.06 13.8445 11.0184 13.7612 10.9352L13.1846 10.3562C13.0169 10.1897 13.0169 9.91862 13.1846 9.74979C13.351 9.58333 13.6233 9.58333 13.791 9.74979L14.0644 10.0256L15.0346 9.05542C15.2023 8.88778 15.4734 8.88778 15.641 9.05542C15.8087 9.22307 15.8087 9.49535 15.641 9.6618L14.3676 10.9352C14.2844 11.0184 14.175 11.06 14.0644 11.06Z" fill="#010202"/>
<path fill-rule="evenodd" clip-rule="evenodd" d="M14.0642 17.8296C13.9548 17.8296 13.8442 17.788 13.761 17.7047L13.1843 17.1257C13.0167 16.9592 13.0167 16.6882 13.1843 16.5193C13.3508 16.3529 13.6231 16.3529 13.7907 16.5193L14.0642 16.7952L15.0344 15.825C15.202 15.6573 15.4731 15.6573 15.6408 15.825C15.8084 15.9926 15.8084 16.2649 15.6408 16.4313L14.3674 17.7047C14.2841 17.788 14.1748 17.8296 14.0642 17.8296Z" fill="#010202"/>
<path fill-rule="evenodd" clip-rule="evenodd" d="M14.0642 24.6001C13.9548 24.6001 13.8442 24.5585 13.761 24.4752L13.1843 23.8962C13.0167 23.7298 13.0167 23.4587 13.1843 23.2898C13.3508 23.1234 13.6231 23.1234 13.7907 23.2898L14.0642 23.5657L15.0344 22.5955C15.202 22.4278 15.4731 22.4278 15.6408 22.5955C15.8084 22.7631 15.8084 23.0354 15.6408 23.2018L14.3674 24.4752C14.2841 24.5585 14.1748 24.6001 14.0642 24.6001Z" fill="#010202"/>
<path fill-rule="evenodd" clip-rule="evenodd" d="M14.0642 31.3696C13.9548 31.3696 13.8442 31.328 13.761 31.2448L13.1843 30.6657C13.0167 30.4993 13.0167 30.2282 13.1843 30.0594C13.3508 29.8929 13.6231 29.8929 13.7907 30.0594L14.0642 30.3352L15.0344 29.365C15.202 29.1973 15.4731 29.1973 15.6408 29.365C15.8084 29.5326 15.8084 29.8049 15.6408 29.9714L14.3674 31.2448C14.2841 31.328 14.1748 31.3696 14.0642 31.3696Z" fill="#010202"/>
<path fill-rule="evenodd" clip-rule="evenodd" d="M7.29489 7.67528C7.1855 7.67528 7.07493 7.63367 6.9917 7.55044L6.41504 6.9714C6.24739 6.80495 6.24739 6.53386 6.41504 6.36502C6.5815 6.19857 6.85378 6.19857 7.02142 6.36502L7.29489 6.64087L8.2651 5.67066C8.43275 5.50301 8.70383 5.50301 8.87148 5.67066C9.03913 5.8383 9.03913 6.11058 8.87148 6.27704L7.59808 7.55044C7.51485 7.63367 7.40546 7.67528 7.29489 7.67528Z" fill="#010202"/>
<path fill-rule="evenodd" clip-rule="evenodd" d="M7.29416 14.4448C7.18477 14.4448 7.07419 14.4032 6.99097 14.32L6.41431 13.7409C6.24666 13.5745 6.24666 13.3034 6.41431 13.1346C6.58077 12.9681 6.85304 12.9681 7.02069 13.1346L7.29416 13.4104L8.26437 12.4402C8.43201 12.2725 8.7031 12.2725 8.87075 12.4402C9.0384 12.6078 9.0384 12.8801 8.87075 13.0466L7.59735 14.32C7.51412 14.4032 7.40473 14.4448 7.29416 14.4448Z" fill="#010202"/>
<path fill-rule="evenodd" clip-rule="evenodd" d="M7.29416 21.2153C7.18477 21.2153 7.07419 21.1737 6.99097 21.0905L6.41431 20.5114C6.24666 20.345 6.24666 20.0739 6.41431 19.9051C6.58077 19.7386 6.85304 19.7386 7.02069 19.9051L7.29416 20.1809L8.26437 19.2107C8.43201 19.043 8.7031 19.043 8.87075 19.2107C9.0384 19.3783 9.0384 19.6506 8.87075 19.8171L7.59735 21.0905C7.51412 21.1737 7.40473 21.2153 7.29416 21.2153Z" fill="#010202"/>
<path fill-rule="evenodd" clip-rule="evenodd" d="M7.29416 27.9849C7.18477 27.9849 7.07419 27.9432 6.99097 27.86L6.41431 27.281C6.24666 27.1145 6.24666 26.8434 6.41431 26.6746C6.58077 26.5081 6.85304 26.5081 7.02069 26.6746L7.29416 26.9504L8.26437 25.9802C8.43201 25.8126 8.7031 25.8126 8.87075 25.9802C9.0384 26.1479 9.0384 26.4202 8.87075 26.5866L7.59735 27.86C7.51412 27.9432 7.40473 27.9849 7.29416 27.9849Z" fill="#010202"/>
<path fill-rule="evenodd" clip-rule="evenodd" d="M7.29416 34.7544C7.18477 34.7544 7.07419 34.7128 6.99097 34.6295L6.41431 34.0505C6.24666 33.884 6.24666 33.613 6.41431 33.4441C6.58077 33.2777 6.85304 33.2777 7.02069 33.4441L7.29416 33.72L8.26437 32.7498C8.43201 32.5821 8.7031 32.5821 8.87075 32.7498C9.0384 32.9174 9.0384 33.1897 8.87075 33.3561L7.59735 34.6295C7.51412 34.7128 7.40473 34.7544 7.29416 34.7544Z" fill="#010202"/>
</g>
<path fill-rule="evenodd" clip-rule="evenodd" d="M3.06397 33.4097H53.9346V3.34595H3.06397V33.4097ZM20.2942 47.0644C20.074 47.0644 19.8961 46.8858 19.8961 46.6662V44.7486C19.8961 44.529 20.074 44.3505 20.2942 44.3505H23.4432V37.7128H2.7827C1.46802 37.7128 0.397949 36.6428 0.397949 35.3275V2.78318C0.397949 1.46851 1.46802 0.398438 2.7827 0.398438H54.2169C55.5322 0.398438 56.6017 1.46851 56.6017 2.78318V35.3275C56.6017 36.6428 55.5322 37.7128 54.2169 37.7128H33.5564V44.3505H36.706C36.9256 44.3505 37.1041 44.529 37.1041 44.7486V46.6662C37.1041 46.8858 36.9256 47.0644 36.706 47.0644H20.2942Z" fill="#1A1A1A"/>
<path fill-rule="evenodd" clip-rule="evenodd" d="M3.46289 33.0108H53.5372V3.74335H3.46289V33.0108ZM54.2171 0H2.7829C1.24861 0 0 1.24861 0 2.7829V35.3278C0 36.8621 1.24861 38.1107 2.7829 38.1107H23.0452V43.9521H20.2944C19.854 43.9521 19.4981 44.3085 19.4981 44.7484V46.6659C19.4981 47.1051 19.854 47.4616 20.2944 47.4616H36.7062C37.1454 47.4616 37.5025 47.1051 37.5025 46.6659V44.7484C37.5025 44.3085 37.1454 43.9521 36.7062 43.9521H33.9548V38.1107H54.2171C55.752 38.1107 57 36.8621 57 35.3278V2.7829C57 1.24861 55.752 0 54.2171 0ZM2.6665 33.8071H54.3334V2.94708H2.6665V33.8071ZM54.2172 0.796265C55.3099 0.796265 56.2038 1.69017 56.2038 2.78286V35.3278C56.2038 36.4199 55.3099 37.3144 54.2172 37.3144H33.2925H33.1586V44.7483H36.7062V46.6659H20.2945V44.7483H23.8416V37.3144H2.78298C1.69029 37.3144 0.796387 36.4199 0.796387 35.3278V2.78286C0.796387 1.69017 1.69029 0.796265 2.78298 0.796265H54.2172Z" fill="#FEFEFE"/>
<path d="M59 30.6269C59 28.6238 57.3762 27 55.3731 27L43.6269 27C41.6238 27 40 28.6238 40 30.6269L40 55.3731C40 57.3762 41.6238 59 43.6269 59L55.3731 59C57.3762 59 59 57.3762 59 55.3731L59 30.6269Z" fill="#CEDC00" stroke="white" stroke-width="2"/>
<circle cx="50.333" cy="55.5947" r="1.25" fill="white"/>
</svg>
