<svg width="60" height="60" viewBox="0 0 60 60" fill="none" xmlns="http://www.w3.org/2000/svg">
<g clip-path="url(#clip0)">
<rect x="8" y="20" width="52" height="40" rx="2" fill="#CEDC00"/>
<path d="M8 22C8 20.8954 8.89543 20 10 20H58C59.1046 20 60 20.8954 60 22V26H8V22Z" fill="#1A1A1A"/>
<circle cx="12" cy="23" r="1" fill="#00A82D"/>
<circle cx="16" cy="23" r="1" fill="#00A82D"/>
<circle cx="20" cy="23" r="1" fill="#00A82D"/>
<rect x="30" y="22" width="25.5" height="2" rx="1" fill="white"/>
<rect x="11" y="49" width="21.5" height="2" rx="1" fill="#BBCD00"/>
<rect x="36" y="49" width="21" height="2" rx="1" fill="#BBCD00"/>
<rect x="11" y="53.5" width="21.5" height="2" rx="1" fill="#BBCD00"/>
<rect x="36" y="53.5" width="21" height="2" rx="1" fill="#BBCD00"/>
<rect x="11" y="30" width="46" height="16" rx="2" fill="#BBCD00"/>
<rect x="-1.25" y="-1.25" width="54.5" height="47.5" rx="3.25" fill="#00A82D" stroke="white" stroke-width="2.5"/>
<path d="M0 2C0 0.89543 0.89543 0 2 0H50C51.1046 0 52 0.89543 52 2V7H0V2Z" fill="#1A1A1A"/>
<circle cx="4" cy="3.5" r="1" fill="#00A82D"/>
<circle cx="8" cy="3.5" r="1" fill="#00A82D"/>
<circle cx="12" cy="3.5" r="1" fill="#00A82D"/>
<rect x="22" y="2.5" width="25.5" height="2" rx="1" fill="white"/>
<rect x="3" y="11" width="15" height="30" rx="2" fill="#007620"/>
<rect x="22" y="11" width="27" height="2" rx="1" fill="#007620"/>
<rect x="22" y="15.5" width="11.5" height="2" rx="1" fill="#007620"/>
<rect x="37.5" y="15.5" width="11.5" height="2" rx="1" fill="#007620"/>
<rect x="22" y="20" width="19.5" height="2" rx="1" fill="#007620"/>
<rect x="22" y="24.5" width="6.5" height="2" rx="1" fill="#007620"/>
<rect x="32.5" y="24.5" width="16.5" height="2" rx="1" fill="#007620"/>
<rect x="22" y="29" width="27" height="2" rx="1" fill="#007620"/>
<rect x="22" y="33.5" width="15.5" height="2" rx="1" fill="#007620"/>
</g>
<defs>
<clipPath id="clip0">
<rect width="60" height="60" fill="white"/>
</clipPath>
</defs>
</svg>
